<mxfile host="app.diagrams.net" agent="Mozilla/5.0 (Windows NT 10.0; Win64; x64) AppleWebKit/537.36 (KHTML, like Gecko) Chrome/127.0.0.0 Safari/537.36" version="24.7.7">
  <diagram name="페이지-1" id="hZkJMaY7xypT7SpQBSe9">
    <mxGraphModel dx="1434" dy="772" grid="1" gridSize="10" guides="1" tooltips="1" connect="1" arrows="1" fold="1" page="1" pageScale="1" pageWidth="827" pageHeight="1169" math="0" shadow="0">
      <root>
        <mxCell id="0" />
        <mxCell id="1" parent="0" />
        <mxCell id="KtC7ysKLOuglknF3prI5-1" value="서버" style="shape=cylinder3;whiteSpace=wrap;html=1;boundedLbl=1;backgroundOutline=1;size=15;fillColor=#dae8fc;strokeColor=#6c8ebf;" parent="1" vertex="1">
          <mxGeometry x="354" y="80" width="120" height="100" as="geometry" />
        </mxCell>
        <mxCell id="M07Gjk41BYVv6PrY2_Yd-11" value="" style="shape=callout;whiteSpace=wrap;html=1;perimeter=calloutPerimeter;direction=west;position2=0.08;size=210;position=0;fillColor=#ffe6cc;base=70;strokeColor=#d79b00;" vertex="1" parent="1">
          <mxGeometry x="50" y="170" width="750" height="465" as="geometry" />
        </mxCell>
        <mxCell id="KtC7ysKLOuglknF3prI5-2" value="사용자" style="rounded=1;whiteSpace=wrap;html=1;fillColor=#d5e8d4;strokeColor=#82b366;" parent="1" vertex="1">
          <mxGeometry x="20" y="75" width="120" height="150" as="geometry" />
        </mxCell>
        <mxCell id="KtC7ysKLOuglknF3prI5-8" value="" style="endArrow=classic;html=1;rounded=0;entryX=-0.05;entryY=0.27;entryDx=0;entryDy=0;entryPerimeter=0;exitX=1.017;exitY=0.213;exitDx=0;exitDy=0;exitPerimeter=0;" parent="1" source="KtC7ysKLOuglknF3prI5-2" target="KtC7ysKLOuglknF3prI5-1" edge="1">
          <mxGeometry width="50" height="50" relative="1" as="geometry">
            <mxPoint x="186" y="280" as="sourcePoint" />
            <mxPoint x="380" y="280" as="targetPoint" />
          </mxGeometry>
        </mxCell>
        <mxCell id="KtC7ysKLOuglknF3prI5-13" value="" style="endArrow=classic;html=1;rounded=0;exitX=1;exitY=0;exitDx=0;exitDy=32.5;exitPerimeter=0;" parent="1" edge="1">
          <mxGeometry width="50" height="50" relative="1" as="geometry">
            <mxPoint x="474" y="119.5" as="sourcePoint" />
            <mxPoint x="650" y="120" as="targetPoint" />
          </mxGeometry>
        </mxCell>
        <mxCell id="KtC7ysKLOuglknF3prI5-15" value="" style="endArrow=classic;html=1;rounded=0;exitX=0.438;exitY=1.011;exitDx=0;exitDy=0;exitPerimeter=0;" parent="1" source="KtC7ysKLOuglknF3prI5-3" edge="1">
          <mxGeometry width="50" height="50" relative="1" as="geometry">
            <mxPoint x="827" y="188" as="sourcePoint" />
            <mxPoint x="440" y="190" as="targetPoint" />
            <Array as="points">
              <mxPoint x="713" y="280" />
              <mxPoint x="440" y="280" />
            </Array>
          </mxGeometry>
        </mxCell>
        <mxCell id="KtC7ysKLOuglknF3prI5-5" value="&lt;font style=&quot;font-size: 12px;&quot;&gt;아이디&lt;/font&gt;&lt;div style=&quot;font-size: 12px;&quot;&gt;&lt;font style=&quot;font-size: 12px;&quot;&gt;비밀번호&lt;/font&gt;&lt;/div&gt;&lt;div style=&quot;font-size: 12px;&quot;&gt;&lt;font style=&quot;font-size: 12px;&quot;&gt;이름&lt;/font&gt;&lt;/div&gt;&lt;div style=&quot;font-size: 12px;&quot;&gt;&lt;font style=&quot;font-size: 12px;&quot;&gt;닉네임&lt;/font&gt;&lt;/div&gt;&lt;div style=&quot;font-size: 12px;&quot;&gt;&lt;font style=&quot;font-size: 12px;&quot;&gt;메세지&lt;/font&gt;&lt;/div&gt;" style="text;html=1;align=left;verticalAlign=top;whiteSpace=wrap;rounded=0;strokeWidth=2;fillColor=#fff2cc;strokeColor=#d6b656;fontSize=12;" parent="1" vertex="1">
          <mxGeometry x="200" y="75" width="70" height="80" as="geometry" />
        </mxCell>
        <mxCell id="M07Gjk41BYVv6PrY2_Yd-1" value="" style="swimlane;whiteSpace=wrap;html=1;fillColor=#f8cecc;strokeColor=#b85450;" vertex="1" parent="1">
          <mxGeometry x="300" y="10" width="500" height="310" as="geometry" />
        </mxCell>
        <mxCell id="KtC7ysKLOuglknF3prI5-3" value="데이터베이스" style="rounded=1;whiteSpace=wrap;html=1;fillColor=#ffe6cc;strokeColor=#d79b00;" parent="M07Gjk41BYVv6PrY2_Yd-1" vertex="1">
          <mxGeometry x="360" y="70" width="120" height="150" as="geometry" />
        </mxCell>
        <mxCell id="M07Gjk41BYVv6PrY2_Yd-2" value="&lt;div&gt;이름&lt;/div&gt;&lt;div&gt;닉네임&lt;/div&gt;&lt;div&gt;메세지&lt;/div&gt;" style="text;html=1;align=left;verticalAlign=top;whiteSpace=wrap;rounded=0;horizontal=1;fillColor=#fff2cc;strokeColor=#d6b656;" vertex="1" parent="M07Gjk41BYVv6PrY2_Yd-1">
          <mxGeometry x="260" y="240" width="50" height="50" as="geometry" />
        </mxCell>
        <mxCell id="KtC7ysKLOuglknF3prI5-14" value="&lt;font style=&quot;font-size: 12px;&quot;&gt;아이디&lt;/font&gt;&lt;div style=&quot;font-size: 12px;&quot;&gt;&lt;font style=&quot;font-size: 12px;&quot;&gt;비밀번호&lt;/font&gt;&lt;/div&gt;&lt;div style=&quot;font-size: 12px;&quot;&gt;&lt;font style=&quot;font-size: 12px;&quot;&gt;이름&lt;/font&gt;&lt;/div&gt;&lt;div style=&quot;font-size: 12px;&quot;&gt;&lt;font style=&quot;font-size: 12px;&quot;&gt;닉네임&lt;/font&gt;&lt;/div&gt;&lt;div style=&quot;font-size: 12px;&quot;&gt;보낸 사람&lt;/div&gt;&lt;div style=&quot;font-size: 12px;&quot;&gt;받는 사람&lt;/div&gt;&lt;div style=&quot;font-size: 12px;&quot;&gt;메세지&lt;/div&gt;" style="text;html=1;align=left;verticalAlign=top;whiteSpace=wrap;rounded=0;strokeWidth=2;fillColor=#fff2cc;strokeColor=#d6b656;fontSize=12;" parent="M07Gjk41BYVv6PrY2_Yd-1" vertex="1">
          <mxGeometry x="220" y="60" width="70" height="110" as="geometry" />
        </mxCell>
        <mxCell id="M07Gjk41BYVv6PrY2_Yd-3" value="" style="endArrow=classic;html=1;rounded=0;entryX=0.5;entryY=1;entryDx=0;entryDy=0;" edge="1" parent="1" target="KtC7ysKLOuglknF3prI5-2">
          <mxGeometry width="50" height="50" relative="1" as="geometry">
            <mxPoint x="390" y="190" as="sourcePoint" />
            <mxPoint x="440" y="250" as="targetPoint" />
            <Array as="points">
              <mxPoint x="390" y="270" />
              <mxPoint x="80" y="270" />
            </Array>
          </mxGeometry>
        </mxCell>
        <mxCell id="M07Gjk41BYVv6PrY2_Yd-4" value="사용자 정보" style="swimlane;fontStyle=0;childLayout=stackLayout;horizontal=1;startSize=30;horizontalStack=0;resizeParent=1;resizeParentMax=0;resizeLast=0;collapsible=1;marginBottom=0;whiteSpace=wrap;html=1;fillColor=#b1ddf0;strokeColor=#10739e;" vertex="1" parent="1">
          <mxGeometry x="80" y="400" width="140" height="150" as="geometry" />
        </mxCell>
        <mxCell id="M07Gjk41BYVv6PrY2_Yd-5" value="아이디" style="text;strokeColor=none;fillColor=none;align=left;verticalAlign=middle;spacingLeft=4;spacingRight=4;overflow=hidden;points=[[0,0.5],[1,0.5]];portConstraint=eastwest;rotatable=0;whiteSpace=wrap;html=1;" vertex="1" parent="M07Gjk41BYVv6PrY2_Yd-4">
          <mxGeometry y="30" width="140" height="30" as="geometry" />
        </mxCell>
        <mxCell id="M07Gjk41BYVv6PrY2_Yd-6" value="비밀번호" style="text;strokeColor=none;fillColor=none;align=left;verticalAlign=middle;spacingLeft=4;spacingRight=4;overflow=hidden;points=[[0,0.5],[1,0.5]];portConstraint=eastwest;rotatable=0;whiteSpace=wrap;html=1;" vertex="1" parent="M07Gjk41BYVv6PrY2_Yd-4">
          <mxGeometry y="60" width="140" height="30" as="geometry" />
        </mxCell>
        <mxCell id="M07Gjk41BYVv6PrY2_Yd-7" value="이름" style="text;strokeColor=none;fillColor=none;align=left;verticalAlign=middle;spacingLeft=4;spacingRight=4;overflow=hidden;points=[[0,0.5],[1,0.5]];portConstraint=eastwest;rotatable=0;whiteSpace=wrap;html=1;" vertex="1" parent="M07Gjk41BYVv6PrY2_Yd-4">
          <mxGeometry y="90" width="140" height="30" as="geometry" />
        </mxCell>
        <mxCell id="M07Gjk41BYVv6PrY2_Yd-8" value="닉네임" style="text;strokeColor=none;fillColor=none;align=left;verticalAlign=middle;spacingLeft=4;spacingRight=4;overflow=hidden;points=[[0,0.5],[1,0.5]];portConstraint=eastwest;rotatable=0;whiteSpace=wrap;html=1;" vertex="1" parent="M07Gjk41BYVv6PrY2_Yd-4">
          <mxGeometry y="120" width="140" height="30" as="geometry" />
        </mxCell>
        <mxCell id="M07Gjk41BYVv6PrY2_Yd-12" value="메세지 정보" style="swimlane;fontStyle=0;childLayout=stackLayout;horizontal=1;startSize=30;horizontalStack=0;resizeParent=1;resizeParentMax=0;resizeLast=0;collapsible=1;marginBottom=0;whiteSpace=wrap;html=1;fillColor=#b1ddf0;strokeColor=#10739e;" vertex="1" parent="1">
          <mxGeometry x="260" y="400" width="140" height="150" as="geometry" />
        </mxCell>
        <mxCell id="M07Gjk41BYVv6PrY2_Yd-13" value="보낸 사람 아이디" style="text;strokeColor=none;fillColor=none;align=left;verticalAlign=middle;spacingLeft=4;spacingRight=4;overflow=hidden;points=[[0,0.5],[1,0.5]];portConstraint=eastwest;rotatable=0;whiteSpace=wrap;html=1;" vertex="1" parent="M07Gjk41BYVv6PrY2_Yd-12">
          <mxGeometry y="30" width="140" height="30" as="geometry" />
        </mxCell>
        <mxCell id="M07Gjk41BYVv6PrY2_Yd-14" value="받는 사람 아이디" style="text;strokeColor=none;fillColor=none;align=left;verticalAlign=middle;spacingLeft=4;spacingRight=4;overflow=hidden;points=[[0,0.5],[1,0.5]];portConstraint=eastwest;rotatable=0;whiteSpace=wrap;html=1;" vertex="1" parent="M07Gjk41BYVv6PrY2_Yd-12">
          <mxGeometry y="60" width="140" height="30" as="geometry" />
        </mxCell>
        <mxCell id="M07Gjk41BYVv6PrY2_Yd-15" value="메세지" style="text;strokeColor=none;fillColor=none;align=left;verticalAlign=middle;spacingLeft=4;spacingRight=4;overflow=hidden;points=[[0,0.5],[1,0.5]];portConstraint=eastwest;rotatable=0;whiteSpace=wrap;html=1;" vertex="1" parent="M07Gjk41BYVv6PrY2_Yd-12">
          <mxGeometry y="90" width="140" height="30" as="geometry" />
        </mxCell>
        <mxCell id="M07Gjk41BYVv6PrY2_Yd-16" value="메세지 전송 시간" style="text;strokeColor=none;fillColor=none;align=left;verticalAlign=middle;spacingLeft=4;spacingRight=4;overflow=hidden;points=[[0,0.5],[1,0.5]];portConstraint=eastwest;rotatable=0;whiteSpace=wrap;html=1;" vertex="1" parent="M07Gjk41BYVv6PrY2_Yd-12">
          <mxGeometry y="120" width="140" height="30" as="geometry" />
        </mxCell>
        <mxCell id="M07Gjk41BYVv6PrY2_Yd-17" value="List" style="swimlane;fontStyle=0;childLayout=stackLayout;horizontal=1;startSize=30;horizontalStack=0;resizeParent=1;resizeParentMax=0;resizeLast=0;collapsible=1;marginBottom=0;whiteSpace=wrap;html=1;fillColor=#b1ddf0;strokeColor=#10739e;" vertex="1" parent="1">
          <mxGeometry x="440" y="400" width="140" height="120" as="geometry" />
        </mxCell>
        <mxCell id="M07Gjk41BYVv6PrY2_Yd-18" value="Item 1" style="text;strokeColor=none;fillColor=none;align=left;verticalAlign=middle;spacingLeft=4;spacingRight=4;overflow=hidden;points=[[0,0.5],[1,0.5]];portConstraint=eastwest;rotatable=0;whiteSpace=wrap;html=1;" vertex="1" parent="M07Gjk41BYVv6PrY2_Yd-17">
          <mxGeometry y="30" width="140" height="30" as="geometry" />
        </mxCell>
        <mxCell id="M07Gjk41BYVv6PrY2_Yd-19" value="Item 2" style="text;strokeColor=none;fillColor=none;align=left;verticalAlign=middle;spacingLeft=4;spacingRight=4;overflow=hidden;points=[[0,0.5],[1,0.5]];portConstraint=eastwest;rotatable=0;whiteSpace=wrap;html=1;" vertex="1" parent="M07Gjk41BYVv6PrY2_Yd-17">
          <mxGeometry y="60" width="140" height="30" as="geometry" />
        </mxCell>
        <mxCell id="M07Gjk41BYVv6PrY2_Yd-20" value="Item 3" style="text;strokeColor=none;fillColor=none;align=left;verticalAlign=middle;spacingLeft=4;spacingRight=4;overflow=hidden;points=[[0,0.5],[1,0.5]];portConstraint=eastwest;rotatable=0;whiteSpace=wrap;html=1;" vertex="1" parent="M07Gjk41BYVv6PrY2_Yd-17">
          <mxGeometry y="90" width="140" height="30" as="geometry" />
        </mxCell>
      </root>
    </mxGraphModel>
  </diagram>
</mxfile>
